<?xml version="1.0" encoding="iso-8859-1"?>
<!-- Uploaded to: SVG Repo, www.svgrepo.com, Generator: SVG Repo Mixer Tools -->
<!DOCTYPE svg PUBLIC "-//W3C//DTD SVG 1.1//EN" "http://www.w3.org/Graphics/SVG/1.1/DTD/svg11.dtd">
<svg fill="#000000" version="1.1" id="Capa_1" xmlns="http://www.w3.org/2000/svg" xmlns:xlink="http://www.w3.org/1999/xlink" 
	 width="800px" height="800px" viewBox="0 0 680.534 680.534"
	 xml:space="preserve">
<g>
	<g>
		<g>
			<g>
				<g>
					<path d="M340.261,358.231c17.896,0,33.647-8.998,43.067-22.706h70.971c16.318,0,29.548-13.219,29.548-29.537
						c0-16.285-13.229-29.537-29.548-29.537h-70.981c-9.42-13.686-25.172-22.683-43.056-22.683c-0.278,0-0.533,0.089-0.8,0.089
						l-64.706-91.065c-9.431-13.252-27.893-16.418-41.189-6.943c-13.297,9.442-16.418,27.871-6.976,41.201l64.761,91.11
						c-2.044,5.588-3.333,11.531-3.333,17.84C288.03,334.87,311.402,358.231,340.261,358.231z"/>
				</g>
			</g>
		</g>
		<g>
			<g>
				<g>
					<path d="M273.034,654.322c-28.337-19.317-57.252-56.363-43.412-125.157h37.102c6.598,0,12.585-3.91,15.24-9.941
						c2.622-6.099,1.4-13.119-3.099-17.962l-96.964-104.029c-3.144-3.366-7.531-5.266-12.164-5.266
						c-4.599,0-8.986,1.911-12.13,5.266L60.655,501.262c-4.499,4.843-5.721,11.874-3.077,17.962
						c2.655,6.031,8.631,9.941,15.196,9.941h34.824c3.021,11.742,40.246,147.407,156.86,151.361
						c6.376,0.212,12.13-3.81,14.119-9.875S278.311,657.943,273.034,654.322z"/>
				</g>
			</g>
		</g>
		<g>
			<g>
				<g>
					<path d="M340.261,0C171.271,0,34.272,136.998,34.272,305.989c0,51.142,12.708,99.252,34.891,141.62l58.33-62.584
						c-6.998-18.762-11.675-38.635-13.53-59.33h26.604c10.875,0,19.684-8.798,19.684-19.695c0-10.875-8.809-19.695-19.684-19.695
						h-26.527c9.476-109.594,96.942-197.072,206.537-206.547v26.549c0,10.897,8.809,19.695,19.684,19.695
						c10.886,0,19.695-8.798,19.695-19.695V79.757c109.584,9.475,197.072,96.953,206.537,206.547h-26.538
						c-10.875,0-19.684,8.82-19.684,19.695c0,10.897,8.809,19.695,19.684,19.695h26.538
						c-9.465,109.617-96.965,197.072-206.537,206.547v-26.538c0-10.896-8.809-19.694-19.695-19.694
						c-10.875,0-19.684,8.798-19.684,19.694v26.427c-3.566-0.355-7.143-0.699-10.664-1.188c-0.044,0.101-0.044,0.211-0.089,0.3
						c-7.576,17.263-24.46,28.293-43.1,28.293h-10.32c-0.533,16.529,2.566,30.726,9.109,42.867
						c23.96,6.032,48.91,9.586,74.736,9.586c169.002,0,306.012-136.976,306.012-306C646.272,136.998,509.263,0,340.261,0z"/>
				</g>
			</g>
		</g>
	</g>
</g>
</svg>